<svg xmlns="http://www.w3.org/2000/svg" xmlns:xlink="http://www.w3.org/1999/xlink" version="1.1" data-diagram-type="MINDMAP" style="width:524px;height:740px;background:#FFFFFF;" width="524px" height="740px" viewBox="0 0 524 740" zoomAndPan="magnify" preserveAspectRatio="none" contentStyleType="text/css"><?plantuml 1.2026.7?><defs/><g font-family="sans-serif" lengthAdjust="spacing"><g class="title" data-source-line="1"><text x="217.462" y="34.966" fill="#000" font-size="14" textLength="87.906" font-weight="700">Rerun 实体树</text></g><rect x="10" y="370.174" width="57.478" height="39.068" fill="#F1F1F1" style="stroke:#181818;stroke-width:1.5;" rx="12.5" ry="12.5"/><text x="20" y="395.14" fill="#000" font-size="14" textLength="37.478">world</text><rect x="117.478" y="178.204" width="56.386" height="39.068" fill="#F1F1F1" style="stroke:#181818;stroke-width:1.5;" rx="12.5" ry="12.5"/><text x="127.478" y="203.17" fill="#000" font-size="14" textLength="36.386">robot</text><rect x="223.864" y="89.602" width="61.678" height="39.068" fill="#F1F1F1" style="stroke:#181818;stroke-width:1.5;" rx="12.5" ry="12.5"/><text x="233.864" y="114.568" fill="#000" font-size="14" textLength="41.678">model</text><rect x="335.542" y="60.068" width="77.68" height="39.068" fill="#F1F1F1" style="stroke:#181818;stroke-width:1.5;" rx="12.5" ry="12.5"/><text x="345.542" y="85.034" fill="#000" font-size="14" textLength="57.68">manifest</text><path d="M285.542,109.136 L295.542,109.136 C310.542,109.136 310.542,79.602 325.542,79.602 L335.542,79.602" style="stroke:#181818;stroke-width:1;" fill="none"/><rect x="335.542" y="119.136" width="113.1" height="39.068" fill="#F1F1F1" style="stroke:#181818;stroke-width:1.5;" rx="12.5" ry="12.5"/><text x="345.542" y="144.102" fill="#000" font-size="14" textLength="93.1">mujoco_scene</text><path d="M285.542,109.136 L295.542,109.136 C310.542,109.136 310.542,138.67 325.542,138.67 L335.542,138.67" style="stroke:#181818;stroke-width:1;" fill="none"/><path d="M173.864,197.738 L183.864,197.738 C198.864,197.738 198.864,109.136 213.864,109.136 L223.864,109.136" style="stroke:#181818;stroke-width:1;" fill="none"/><rect x="223.864" y="178.204" width="66.144" height="39.068" fill="#F1F1F1" style="stroke:#181818;stroke-width:1.5;" rx="12.5" ry="12.5"/><text x="233.864" y="203.17" fill="#000" font-size="14" textLength="46.144">frames</text><rect x="340.008" y="178.204" width="163.821" height="39.068" fill="#F1F1F1" style="stroke:#181818;stroke-width:1.5;" rx="12.5" ry="12.5"/><text x="350.008" y="203.17" fill="#000" font-size="14" textLength="143.821">&lt;link>/model/&lt;mesh></text><path d="M290.008,197.738 L300.008,197.738 C315.008,197.738 315.008,197.738 330.008,197.738 L340.008,197.738" style="stroke:#181818;stroke-width:1;" fill="none"/><path d="M173.864,197.738 L183.864,197.738 C198.864,197.738 198.864,197.738 213.864,197.738 L223.864,197.738" style="stroke:#181818;stroke-width:1;" fill="none"/><rect x="223.864" y="266.806" width="56.106" height="39.068" fill="#F1F1F1" style="stroke:#181818;stroke-width:1.5;" rx="12.5" ry="12.5"/><text x="233.864" y="291.772" fill="#000" font-size="14" textLength="36.106">joints</text><rect x="329.97" y="237.272" width="138.678" height="39.068" fill="#F1F1F1" style="stroke:#181818;stroke-width:1.5;" rx="12.5" ry="12.5"/><text x="339.97" y="262.238" fill="#000" font-size="14" textLength="118.678">joint_&lt;n>/position</text><path d="M279.97,286.34 L289.97,286.34 C304.97,286.34 304.97,256.806 319.97,256.806 L329.97,256.806" style="stroke:#181818;stroke-width:1;" fill="none"/><rect x="329.97" y="296.34" width="135.108" height="39.068" fill="#F1F1F1" style="stroke:#181818;stroke-width:1.5;" rx="12.5" ry="12.5"/><text x="339.97" y="321.306" fill="#000" font-size="14" textLength="115.108">joint_&lt;n>/velocity</text><path d="M279.97,286.34 L289.97,286.34 C304.97,286.34 304.97,315.874 319.97,315.874 L329.97,315.874" style="stroke:#181818;stroke-width:1;" fill="none"/><path d="M173.864,197.738 L183.864,197.738 C198.864,197.738 198.864,286.34 213.864,286.34 L223.864,286.34" style="stroke:#181818;stroke-width:1;" fill="none"/><path d="M67.478,389.708 L77.478,389.708 C92.478,389.708 92.478,197.738 107.478,197.738 L117.478,197.738" style="stroke:#181818;stroke-width:1;" fill="none"/><rect x="117.478" y="444.009" width="78.254" height="39.068" fill="#F1F1F1" style="stroke:#181818;stroke-width:1.5;" rx="12.5" ry="12.5"/><text x="127.478" y="468.975" fill="#000" font-size="14" textLength="58.254">planning</text><rect x="245.732" y="355.408" width="60.25" height="39.068" fill="#F1F1F1" style="stroke:#181818;stroke-width:1.5;" rx="12.5" ry="12.5"/><text x="255.732" y="380.373" fill="#000" font-size="14" textLength="40.25">target</text><path d="M195.732,463.543 L205.732,463.543 C220.732,463.543 220.732,374.941 235.732,374.941 L245.732,374.941" style="stroke:#181818;stroke-width:1;" fill="none"/><rect x="245.732" y="414.475" width="95.194" height="39.068" fill="#F1F1F1" style="stroke:#181818;stroke-width:1.5;" rx="12.5" ry="12.5"/><text x="255.732" y="439.441" fill="#000" font-size="14" textLength="75.194">ee_position</text><path d="M195.732,463.543 L205.732,463.543 C220.732,463.543 220.732,434.009 235.732,434.009 L245.732,434.009" style="stroke:#181818;stroke-width:1;" fill="none"/><rect x="245.732" y="473.543" width="73.018" height="39.068" fill="#F1F1F1" style="stroke:#181818;stroke-width:1.5;" rx="12.5" ry="12.5"/><text x="255.732" y="498.509" fill="#000" font-size="14" textLength="53.018">error_m</text><path d="M195.732,463.543 L205.732,463.543 C220.732,463.543 220.732,493.077 235.732,493.077 L245.732,493.077" style="stroke:#181818;stroke-width:1;" fill="none"/><rect x="245.732" y="532.611" width="143.466" height="39.068" fill="#F1F1F1" style="stroke:#181818;stroke-width:1.5;" rx="12.5" ry="12.5"/><text x="255.732" y="557.577" fill="#000" font-size="14" textLength="123.466">planned_trajectory</text><path d="M195.732,463.543 L205.732,463.543 C220.732,463.543 220.732,552.145 235.732,552.145 L245.732,552.145" style="stroke:#181818;stroke-width:1;" fill="none"/><path d="M67.478,389.708 L77.478,389.708 C92.478,389.708 92.478,463.543 107.478,463.543 L117.478,463.543" style="stroke:#181818;stroke-width:1;" fill="none"/><rect x="117.478" y="621.213" width="89.314" height="39.068" fill="#F1F1F1" style="stroke:#181818;stroke-width:1.5;" rx="12.5" ry="12.5"/><text x="127.478" y="646.179" fill="#000" font-size="14" textLength="69.314">simulation</text><rect x="256.792" y="591.679" width="75.23" height="39.068" fill="#F1F1F1" style="stroke:#181818;stroke-width:1.5;" rx="12.5" ry="12.5"/><text x="266.792" y="616.645" fill="#000" font-size="14" textLength="55.23">contacts</text><path d="M206.792,640.747 L216.792,640.747 C231.792,640.747 231.792,611.213 246.792,611.213 L256.792,611.213" style="stroke:#181818;stroke-width:1;" fill="none"/><rect x="256.792" y="650.747" width="70.918" height="39.068" fill="#F1F1F1" style="stroke:#181818;stroke-width:1.5;" rx="12.5" ry="12.5"/><text x="266.792" y="675.713" fill="#000" font-size="14" textLength="50.918">sensors</text><path d="M206.792,640.747 L216.792,640.747 C231.792,640.747 231.792,670.281 246.792,670.281 L256.792,670.281" style="stroke:#181818;stroke-width:1;" fill="none"/><path d="M67.478,389.708 L77.478,389.708 C92.478,389.708 92.478,640.747 107.478,640.747 L117.478,640.747" style="stroke:#181818;stroke-width:1;" fill="none"/><rect x="117.478" y="680.281" width="94.606" height="39.068" fill="#F1F1F1" style="stroke:#181818;stroke-width:1.5;" rx="12.5" ry="12.5"/><text x="127.478" y="705.247" fill="#000" font-size="14" textLength="74.606">diagnostics</text><path d="M67.478,389.708 L77.478,389.708 C92.478,389.708 92.478,699.815 107.478,699.815 L117.478,699.815" style="stroke:#181818;stroke-width:1;" fill="none"/><?plantuml-src NP11JiGm34NtEKNMNKnX5h2fgZa35wX2uYakYLqvBeXZ8FQ84t03RWESWpIj46BtRFzlVVkKrOacf93SR1GrWhq1MSX-lRz-VhnylpsRnZwon62QnWhViXPeRE80SQM2Zl0CMVTgcTZpa3qGLELPN8Ay3Rk8TD-trTnsfNtNLyt4IBfhAWyTzUtC6HMP_lSV8B97VLeJpT4H8OrrJRbbX2qVmF3NRa64PKYLgmV2eE8cyCfIDsLCItI_1i-apc-XR0RAB2lRW6uapee-cnEKl-s_CvU7uyNnwd3z0m00?></g></svg>