<svg xmlns="http://www.w3.org/2000/svg" xmlns:xlink="http://www.w3.org/1999/xlink" version="1.1" data-diagram-type="DESCRIPTION" style="width:1652px;height:506px;background:#FFFFFF;" width="1652px" height="506px" viewBox="0 0 1652 506" zoomAndPan="magnify" preserveAspectRatio="none" contentStyleType="text/css"><?plantuml 1.2026.7?><defs/><g font-family="sans-serif" lengthAdjust="spacing"><g class="title" data-source-line="1"><text x="699.35" y="24.966" fill="#000" font-size="14" textLength="246.301" font-weight="700">reBot-DevArm 仿真工作站：SDK 边界</text></g><!--cluster platform--><g class="cluster" data-qualified-name="platform" id="ent0004" data-source-line="10"><path d="M642.5,189.377 L783.499,189.377 A3.75,3.75 0 0 1 785.999,191.877 L792.999,214.445 L1634.5,214.445 A2.5,2.5 0 0 1 1637,216.945 L1637,426.877 A2.5,2.5 0 0 1 1634.5,429.377 L642.5,429.377 A2.5,2.5 0 0 1 640,426.877 L640,191.877 A2.5,2.5 0 0 1 642.5,189.377" style="stroke:#000;stroke-width:1.5;" fill="none"/><line x1="640" y1="214.445" x2="792.999" y2="214.445" style="stroke:#000;stroke-width:1.5;"/><text x="644" y="206.343" fill="#000" font-size="14" textLength="139.999" font-weight="700">平台部署（内部实现）</text></g><!--entity gateway--><g class="entity" data-qualified-name="platform.gateway" id="ent0005" data-source-line="11"><rect x="1088.5" y="343.377" width="156.975" height="58.136" fill="#F1F1F1" style="stroke:#181818;stroke-width:0.5;" rx="2.5" ry="2.5"/><text x="1098.5" y="368.343" fill="#000" font-size="14" textLength="84.812">ArmGateway</text><text x="1098.5" y="387.411" fill="#000" font-size="14" textLength="136.975">控制 / 遥测 / 安全复核</text></g><!--entity planner--><g class="entity" data-qualified-name="platform.planner" id="ent0006" data-source-line="12"><rect x="668.5" y="254.377" width="161.693" height="58.136" fill="#F1F1F1" style="stroke:#181818;stroke-width:0.5;" rx="2.5" ry="2.5"/><text x="678.5" y="279.343" fill="#000" font-size="14" textLength="78.736">ArmPlanner</text><text x="678.5" y="298.411" fill="#000" font-size="14" textLength="141.693">Pinocchio + ProxSuite</text></g><!--entity mujoco--><g class="entity" data-qualified-name="platform.mujoco" id="ent0007" data-source-line="13"><rect x="664" y="347.377" width="170.975" height="58.136" fill="#F1F1F1" style="stroke:#181818;stroke-width:0.5;" rx="2.5" ry="2.5"/><text x="674" y="372.343" fill="#000" font-size="14" textLength="50.96">MuJoCo</text><text x="674" y="391.411" fill="#000" font-size="14" textLength="150.975">动力学 / 接触 / 深度点云</text></g><!--entity viewer--><g class="entity" data-qualified-name="platform.viewer" id="ent0008" data-source-line="14"><rect x="1484" y="254.377" width="128.976" height="58.136" fill="#F1F1F1" style="stroke:#181818;stroke-width:0.5;" rx="2.5" ry="2.5"/><text x="1494" y="279.343" fill="#000" font-size="14" textLength="105.56">Rerun 主 Viewer</text><text x="1494" y="298.411" fill="#000" font-size="14" textLength="108.976">观察 / 记录 / 回放</text></g><!--entity external--><g class="entity" data-qualified-name="external" id="ent0001" data-source-line="6"><ellipse cx="94.431" cy="75.877" rx="8" ry="8" fill="#F1F1F1" style="stroke:#181818;stroke-width:0.5;"/><path d="M94.431,83.877 L94.431,110.877 M81.431,91.877 L107.431,91.877 M94.431,110.877 L81.431,125.877 M94.431,110.877 L107.431,125.877" style="stroke:#181818;stroke-width:0.5;" fill="none"/><text x="6" y="142.343" fill="#000" font-size="14" textLength="56">外部工程</text><text x="6" y="161.411" fill="#000" font-size="14" textLength="176.861">Python / C++ / Rust / ROS 2</text></g><!--entity sdk--><g class="entity" data-qualified-name="sdk" id="ent0002" data-source-line="7"><rect x="299" y="254.377" width="184.975" height="58.136" fill="#F1F1F1" style="stroke:#181818;stroke-width:0.5;" rx="2.5" ry="2.5"/><text x="309" y="279.343" fill="#000" font-size="14" textLength="58.212">官方 SDK</text><text x="309" y="298.411" fill="#000" font-size="14" textLength="164.975">协议封装 / 会话 / 错误映射</text></g><!--entity ros--><g class="entity" data-qualified-name="ros" id="ent0003" data-source-line="8"><rect x="19.5" y="254.377" width="150.255" height="58.136" fill="#F1F1F1" style="stroke:#181818;stroke-width:0.5;" rx="2.5" ry="2.5"/><text x="29.5" y="279.343" fill="#000" font-size="14" textLength="130.255">可选 ROS 2 薄适配层</text><text x="29.5" y="298.411" fill="#000" font-size="14" textLength="116.228">话题与服务 ↔ SDK</text></g><g class="entity" data-qualified-name="GMN18" id="ent0019" data-source-line="28"><path d="M1001,119.877 L1001,165.289 L1332.765,165.289 L1332.765,129.877 L1322.765,119.877 L1001,119.877" style="stroke:#181818;stroke-width:0.5;" fill="#FEFFDD"/><path d="M1322.765,119.877 L1322.765,129.877 L1332.765,129.877 L1322.765,119.877" style="stroke:#181818;stroke-width:1;" fill="#FEFFDD"/><text x="1007" y="138.774" fill="#000" font-size="13" textLength="310.765">外部工程不依赖 MuJoCo、Pinocchio、ProxSuite、URDF</text><text x="1007" y="156.48" fill="#000" font-size="13" textLength="270.088">或 Rerun 内部对象。Viewer 是平台自带可视化。</text></g><!--link external to sdk--><g class="link" data-entity-1="ent0001" data-entity-2="ent0002" id="lnk9" data-source-line="17" data-link-type="dependency"><path d="M182.41,165.587 C233.4,194.447 291.729,227.463 334.889,251.903" style="stroke:#181818;stroke-width:1;" fill="none" id="external-to-sdk"/><polygon points="339.24,254.367,333.379,246.451,334.889,251.903,329.437,253.413,339.24,254.367" fill="#181818" style="stroke:#181818;stroke-width:1;stroke-linejoin:miter;stroke-miterlimit:10;"/><text x="225" y="181.274" fill="#000" font-size="13" textLength="32.162">gRPC</text></g><!--link external to viewer--><g class="link" data-entity-1="ent0001" data-entity-2="ent0008" id="lnk10" data-source-line="18" data-link-type="dependency"><path d="M183.27,93.577 C241.59,80.387 320.11,66.377 390.5,66.377 C390.5,66.377 390.5,66.377 1168,66.377 C1243.06,66.377 1265.67,69.207 1333,102.377 C1411.02,140.827 1481.133,209.979 1518.493,250.549" style="stroke:#181818;stroke-width:1;stroke-dasharray:7,7;" fill="none" id="external-to-viewer"/><polygon points="1521.88,254.227,1518.726,244.897,1518.493,250.549,1512.841,250.316,1521.88,254.227" fill="#181818" style="stroke:#181818;stroke-width:1;stroke-linejoin:miter;stroke-miterlimit:10;"/><text x="694" y="62.274" fill="#000" font-size="13" textLength="111.67">仅通过平台 UI 观察</text></g><!--link ros to sdk--><g class="link" data-entity-1="ent0003" data-entity-2="ent0002" id="lnk11" data-source-line="19" data-link-type="dependency"><path d="M169.56,283.377 C208.82,283.377 252.39,283.377 293.98,283.377" style="stroke:#181818;stroke-width:1;" fill="none" id="ros-to-sdk"/><polygon points="298.98,283.377,289.98,279.377,293.98,283.377,289.98,287.377,298.98,283.377" fill="#181818" style="stroke:#181818;stroke-width:1;stroke-linejoin:miter;stroke-miterlimit:10;"/><text x="214" y="279.274" fill="#000" font-size="13" textLength="54.054">使用 SDK</text></g><!--link sdk to gateway--><g class="link" data-entity-1="ent0002" data-entity-2="ent0005" id="lnk12" data-source-line="20" data-link-type="dependency"><path d="M422.22,312.627 C463.44,350.907 542.17,416.117 624,441.377 C785.56,491.257 980.186,439.865 1086.366,403.045" style="stroke:#181818;stroke-width:1;" fill="none" id="sdk-to-gateway"/><polygon points="1091.09,401.407,1081.276,400.576,1086.366,403.045,1083.897,408.135,1091.09,401.407" fill="#181818" style="stroke:#181818;stroke-width:1;stroke-linejoin:miter;stroke-miterlimit:10;"/><text x="696.5" y="437.274" fill="#000" font-size="13" textLength="106.301">ArmGateway RPC</text></g><!--link sdk to planner--><g class="link" data-entity-1="ent0002" data-entity-2="ent0006" id="lnk13" data-source-line="21" data-link-type="dependency"><path d="M484.18,283.377 C541.14,283.377 608.67,283.377 663.33,283.377" style="stroke:#181818;stroke-width:1;" fill="none" id="sdk-to-planner"/><polygon points="668.33,283.377,659.33,279.377,663.33,283.377,659.33,287.377,668.33,283.377" fill="#181818" style="stroke:#181818;stroke-width:1;stroke-linejoin:miter;stroke-miterlimit:10;"/><text x="515" y="279.274" fill="#000" font-size="13" textLength="100.659">ArmPlanner RPC</text></g><!--link planner to gateway--><g class="link" data-entity-1="ent0006" data-entity-2="ent0005" id="lnk14" data-source-line="22" data-link-type="dependency"><path d="M830.7,305.897 C842.18,308.887 853.86,311.807 865,314.377 C940.44,331.837 1022.437,347.31 1083.417,358.17" style="stroke:#181818;stroke-width:1;" fill="none" id="planner-to-gateway"/><polygon points="1088.34,359.047,1080.181,353.531,1083.417,358.17,1078.778,361.407,1088.34,359.047" fill="#181818" style="stroke:#181818;stroke-width:1;stroke-linejoin:miter;stroke-miterlimit:10;"/><text x="892" y="292.274" fill="#000" font-size="13" textLength="52">候选轨迹</text><text x="866" y="309.98" fill="#000" font-size="13" textLength="104">（二次安全检查）</text></g><!--link mujoco to gateway--><g class="link" data-entity-1="ent0007" data-entity-2="ent0005" id="lnk15" data-source-line="23" data-link-type="dependency"><path d="M835.08,375.567 C909.23,374.847 1011.14,373.875 1083.2,373.175" style="stroke:#181818;stroke-width:1;" fill="none" id="mujoco-to-gateway"/><polygon points="1088.2,373.127,1079.162,369.215,1083.2,373.175,1079.239,377.214,1088.2,373.127" fill="#181818" style="stroke:#181818;stroke-width:1;stroke-linejoin:miter;stroke-miterlimit:10;"/><text x="867" y="370.274" fill="#000" font-size="13" textLength="102.791">SimulationDriver</text></g><!--link gateway to viewer--><g class="link" data-entity-1="ent0005" data-entity-2="ent0008" id="lnk16" data-source-line="24" data-link-type="dependency"><path d="M1245.71,354.157 C1315.97,337.677 1413.292,314.859 1478.862,299.479" style="stroke:#181818;stroke-width:1;" fill="none" id="gateway-to-viewer"/><polygon points="1483.73,298.337,1474.054,296.498,1478.862,299.479,1475.881,304.286,1483.73,298.337" fill="#181818" style="stroke:#181818;stroke-width:1;stroke-linejoin:miter;stroke-miterlimit:10;"/><text x="1364" y="303.274" fill="#000" font-size="13" textLength="89.167">遥测 / TF / 轨迹</text></g><!--link planner to viewer--><g class="link" data-entity-1="ent0006" data-entity-2="ent0008" id="lnk17" data-source-line="25" data-link-type="dependency"><path d="M830.52,275.497 C842.08,274.617 853.84,273.867 865,273.377 C912.07,271.327 923.89,273.037 971,273.377 C1185.68,274.937 1239.37,275.377 1454,280.377 C1463.66,280.607 1468.882,280.737 1478.882,281.037" style="stroke:#181818;stroke-width:1;" fill="none" id="planner-to-viewer"/><polygon points="1483.88,281.187,1475.004,276.919,1478.882,281.037,1474.764,284.915,1483.88,281.187" fill="#181818" style="stroke:#181818;stroke-width:1;stroke-linejoin:miter;stroke-miterlimit:10;"/><text x="1115" y="270.274" fill="#000" font-size="13" textLength="104">规划诊断（可选）</text></g><!--link platform to GMN18--><g class="link" data-entity-1="ent0004" data-entity-2="ent0019" id="lnk20" data-source-line="28" data-link-type="association"><path d="M912.75,214.38 C913.758,214.194 916.28,188.658 917.291,188.471 C919.314,188.096 921.342,187.72 923.374,187.344 C931.504,185.837 939.708,184.317 947.933,182.793 C980.834,176.697 1014.08,170.537 1044.36,164.927" style="stroke:#181818;stroke-width:1;stroke-dasharray:7,7;" fill="none" id="platform-GMN18"/></g><?plantuml-src PLDTJnf157sVNt7Zgz4cVUo3IQknQPkcH6gVUDci8so56R8CVgHfWbJyGD6qGOBVMaL8MrbiOmKL_IzrPncU_0kTsGMKzWKcUyyzvyuvTvZ1mXXC_8oolY4y-TICW7rvqzZUu-S5kxxT-BvnTxNf7te5uhhMM5z1OJpEW54mZM28mPXXOfqPbA3OX46Ycgb5GAUHA2MOC3-RSQbrff5W63-0n4BQ69qoI136jN0C8wJfZ9hGmuzopKybgTmeBGU8RuQ5A857CDZRAtz7uZ6c_jxuuN4FQ370qmoRH0kZZg9aAEUTN0tam072CskYNEQLMN6OaetsrQQmTkIXcTqGbkNaztbbpYMAZKrqSQnPpSII9mGYDzTC99kf33zD1eWaQ7xDszLLPpl3qmVmPpwhj5mMayOGYchwX1R4agJsYwzLv6qQzPztLujyFgLkLjvjh5RkhfRSXcXOO-DK6lu10JpGbnayrnYUqcO2n5ajyiNVQkZPWdEsB0-ylCHJ9NwKSVQhBatGm_x7uGjhX61J-cWGgkiXWq8l-4mwxOyR3BSdK93krjVnbtIGIllI9PxUuYV7KjHPBOYYUpW_vHV7ZMJDllZiKaJYxwbEknb6i1adO5SluPs1fzG8efZarfxi5-KAhw-hQspjEjbhbsBI1Q6F2BKJXRw-0PKAF87WY6_m_dj__q0BBalsPQgPs1Gt2vxNCFe2F1qaetX0OTTl6jcIoWcf3whGyamMxyq6fTG6j9pn02qdNK2xqCt24njoPKIz96vg0IBpjYzMd1y7NbREOSBPAyZKaMVMFxr-8nANco0VqP1fJ4eZsYK5wrosa__ROMMZgzGrJ0SfYdDyyOkmqaxkH6sUkyrA7H7ASElXql7E-g67hywkPkph7N6M0syDRXEpdVLHv_RwoFFeoD0mSXPpuCNTsd2h9auFRXD9BtbmyfQNZbZungl7SXXHdEShEOb0c8o16kal?></g></svg>